<svg xmlns="http://www.w3.org/2000/svg" viewBox="0 0 144.47 114.03"><defs><style>.cls-1{fill:#212121;}</style></defs><title>Batterie</title><g id="Ebene_2" data-name="Ebene 2"><g id="Layer_1" data-name="Layer 1"><path class="cls-1" d="M110.4,51.18v0m0-4.34a4.34,4.34,0,0,0-4.34,4.34v28a4.34,4.34,0,1,0,8.68,0v-28a4.34,4.34,0,0,0-4.34-4.34Z"/><path class="cls-1" d="M124.4,65.18h0m0-4.34h-28a4.34,4.34,0,0,0,0,8.68h28a4.34,4.34,0,1,0,0-8.68Z"/><path class="cls-1" d="M48.07,65.18h0m0-4.34h-28a4.34,4.34,0,0,0,0,8.68h28a4.34,4.34,0,0,0,0-8.68Z"/><path class="cls-1" d="M138.4,22.41V108H6.08V22.41H138.4m0-6.08H6.08A6.08,6.08,0,0,0,0,22.41V108A6.08,6.08,0,0,0,6.08,114H138.4a6.08,6.08,0,0,0,6.07-6.08V22.41a6.08,6.08,0,0,0-6.07-6.08Z"/><path class="cls-1" d="M46,6.08V16.33H22.18V6.08H46M46,0H22.18A6.08,6.08,0,0,0,16.1,6.08V16.33a6.08,6.08,0,0,0,6.08,6.08H46A6.08,6.08,0,0,0,52,16.33V6.08A6.08,6.08,0,0,0,46,0Z"/><path class="cls-1" d="M122.29,6.08V16.33H98.52V6.08h23.77m0-6.08H98.52a6.08,6.08,0,0,0-6.08,6.08V16.33a6.08,6.08,0,0,0,6.08,6.08h23.77a6.08,6.08,0,0,0,6.08-6.08V6.08A6.08,6.08,0,0,0,122.29,0Z"/></g></g></svg>