<svg xmlns="http://www.w3.org/2000/svg" viewBox="0 0 179.82 137.46"><defs><style>.cls-1{fill:#212121;}.cls-2,.cls-3{fill:none;stroke:#212121;stroke-miterlimit:10;stroke-width:2px;}.cls-3{stroke-dasharray:2.88 2.88;}</style></defs><title>Hubhöhe</title><g id="Ebene_2" data-name="Ebene 2"><g id="Layer_1" data-name="Layer 1"><path class="cls-1" d="M43.83,73.73a3.75,3.75,0,1,0,7.49,0V10.19a2.65,2.65,0,0,1,.81-1.89,2.87,2.87,0,0,1,2-.81h49.21a3.75,3.75,0,1,0,0-7.49H54.15a10.39,10.39,0,0,0-7.26,3,10.07,10.07,0,0,0-3.06,7.22Z"/><path class="cls-1" d="M99.38,3A3.74,3.74,0,1,0,92,4.46l15.3,77.48a3.74,3.74,0,1,0,7.35-1.43Z"/><path class="cls-1" d="M86,118.69a3.75,3.75,0,1,0,0-7.49H64.66v7.49ZM64.66,77.48V70h4.26a3.74,3.74,0,0,1,3.75,3.74v7.5h53.66A3.74,3.74,0,0,1,130.07,85c0,.11,0,.23,0,.34l0,29.63a3.73,3.73,0,1,1-7.46,0l0-26.22H68.92A3.74,3.74,0,0,1,65.18,85V77.48Zm0,33.72H43.35a3.75,3.75,0,1,0,0,7.49H64.66V111.2Zm0-41.21v7.49H22.88a9.68,9.68,0,0,0-6.76,2.73,9.15,9.15,0,0,0-2.77,6.52V98.92a3.73,3.73,0,0,1-3.74,3.74H7.55A11.91,11.91,0,0,0,7.49,104v7.23H20a3.75,3.75,0,0,1,0,7.49H3.75A3.75,3.75,0,0,1,0,114.94V104a11.29,11.29,0,0,1,1.06-5.33,6.09,6.09,0,0,1,4.8-3.39V86.73a16.52,16.52,0,0,1,5-11.84,17.07,17.07,0,0,1,12-4.9Z"/><path class="cls-1" d="M130.05,6.3a1.87,1.87,0,0,0-3.74,0V96.21a1.87,1.87,0,0,0,3.74,0Z"/><path class="cls-1" d="M141.55,6.3a3.75,3.75,0,1,0-7.49,0V96.21a3.75,3.75,0,0,0,3.75,3.75h38.26a3.75,3.75,0,0,0,0-7.5H141.55Z"/><path class="cls-1" d="M106.13,90.43A24.08,24.08,0,0,1,123,97.31a23.19,23.19,0,0,1,0,33.28,24.12,24.12,0,0,1-16.9,6.87V130a16.59,16.59,0,0,0,11.66-4.7,15.76,15.76,0,0,0,0-22.63,16.63,16.63,0,0,0-11.66-4.7Zm0,47a24.11,24.11,0,0,1-16.89-6.87,23.19,23.19,0,0,1,0-33.28,24.08,24.08,0,0,1,16.89-6.88v7.5a16.62,16.62,0,0,0-11.65,4.7,15.76,15.76,0,0,0,0,22.63,16.58,16.58,0,0,0,11.65,4.7Z"/><path class="cls-1" d="M32.19,106.23a16,16,0,0,1,11.19,4.56,15.4,15.4,0,0,1,0,22.11,15.94,15.94,0,0,1-11.19,4.56V130a8.46,8.46,0,0,0,6-2.39,8,8,0,0,0,0-11.45,8.46,8.46,0,0,0-6-2.39Zm0,31.23A15.94,15.94,0,0,1,21,132.9a15.4,15.4,0,0,1,0-22.11,16,16,0,0,1,11.19-4.56v7.5a8.46,8.46,0,0,0-5.95,2.39,8,8,0,0,0,0,11.45A8.46,8.46,0,0,0,32.19,130Z"/><path class="cls-1" d="M64.06,39.9a3.74,3.74,0,0,0-7.35,1.43L61.3,64.4,65,63.68l-3.67.73a3.74,3.74,0,0,0,3.74,3H80.4a3.75,3.75,0,0,0,0-7.5H68Z"/><path class="cls-1" d="M89.81,51.19a1.87,1.87,0,1,0-3.5,1.33l11.48,30a1.87,1.87,0,0,0,3.5-1.33Z"/><path class="cls-1" d="M82,53.31a1.87,1.87,0,1,0,2.11,3.09L94,49.66a1.87,1.87,0,1,0-2.11-3.09Z"/><path class="cls-1" d="M60.68,70.37a1.87,1.87,0,0,0,2.11,3.09l9.88-6.74a1.87,1.87,0,0,0-2.11-3.09Z"/><line class="cls-2" x1="158.96" y1="94.82" x2="158.97" y2="93.32"/><line class="cls-3" x1="158.98" y1="90.44" x2="159.15" y2="28.46"/><line class="cls-2" x1="159.15" y1="27.02" x2="159.15" y2="25.52"/><polygon class="cls-1" points="149.97 27.45 168.27 27.5 159.15 18.32 149.97 27.45"/></g></g></svg>