<svg xmlns="http://www.w3.org/2000/svg" viewBox="0 0 187.31 173.03"><defs><style>.cls-1{fill:#212121;}</style></defs><title>Tragkraft</title><g id="Ebene_2" data-name="Ebene 2"><g id="Layer_1" data-name="Layer 1"><path class="cls-1" d="M147.83,76.47H93.66V69h54.17a10,10,0,0,1,7.89,3.73,20.15,20.15,0,0,1,3.55,6.72l27.6,80.76a8.3,8.3,0,0,1,.44,2.64,9,9,0,0,1-2.62,6.18,13.1,13.1,0,0,1-5.26,3.34,12.61,12.61,0,0,1-4,.69H93.66v-7.49h81.76a5.05,5.05,0,0,0,1.61-.28,5.63,5.63,0,0,0,2.22-1.38,1.75,1.75,0,0,0,.57-1.06.67.67,0,0,0,0-.24L152.19,81.82a13.48,13.48,0,0,0-2.14-4.26A2.86,2.86,0,0,0,147.83,76.47Zm-54.17,0H39.48a2.84,2.84,0,0,0-2.21,1.09,13.48,13.48,0,0,0-2.15,4.26L7.53,162.58a.67.67,0,0,0,0,.24,1.75,1.75,0,0,0,.57,1.06,5.63,5.63,0,0,0,2.22,1.38,5.1,5.1,0,0,0,1.61.28H93.66V173H11.89a12.71,12.71,0,0,1-4-.69A13.17,13.17,0,0,1,2.62,169,9,9,0,0,1,0,162.82a8,8,0,0,1,.45-2.64L28,79.42a20.33,20.33,0,0,1,3.55-6.72A10,10,0,0,1,39.48,69H93.66Z"/><path class="cls-1" d="M93.66,55.18a23.85,23.85,0,0,0,0-47.69V0a31.34,31.34,0,0,1,0,62.67Zm0-47.69a23.85,23.85,0,1,0,0,47.69v7.49A31.34,31.34,0,1,1,93.66,0Z"/><path class="cls-1" d="M93.66,69H119.8v-6.3H93.66V55.18h29.88a3.75,3.75,0,0,1,3.75,3.75V72.72a3.75,3.75,0,0,1-3.75,3.75H93.66ZM67.51,69H93.66v7.5H63.77A3.75,3.75,0,0,1,60,72.72V58.93a3.75,3.75,0,0,1,3.75-3.75H93.66v7.49H67.51Z"/><path class="cls-1" d="M86.71,147.44h8.53L83.69,118.13,95.24,94.56H86.93l-10.88,23v-23h-8.3v52.88h8.3V131.2l2.57-4.83,8.09,21.07ZM111,125.54h3.77v9.74a7.09,7.09,0,0,1-.53,3,3.36,3.36,0,0,1-1.48,1.64,5.6,5.6,0,0,1-4.58,0,3.33,3.33,0,0,1-1.49-1.64,7.25,7.25,0,0,1-.53-3V106.73a5.86,5.86,0,0,1,1.16-4,4.76,4.76,0,0,1,6.3,0,5.91,5.91,0,0,1,1.15,4v5.66h7.86v-5.14a16.86,16.86,0,0,0-1.4-7.21A9.9,9.9,0,0,0,117,95.52a15.78,15.78,0,0,0-13.68,0A10,10,0,0,0,99.21,100a16.86,16.86,0,0,0-1.4,7.21v27.5a16.78,16.78,0,0,0,1.4,7.2,10,10,0,0,0,4.15,4.54,15.78,15.78,0,0,0,13.68,0,10,10,0,0,0,4.15-4.54,16.78,16.78,0,0,0,1.4-7.2V118H111Z"/></g></g></svg>